/* XPM */
static char *_6d982832f2342ee986e255426c8fc35M0SFhjAlS9ONTUHA[] = {
/* columns rows colors chars-per-pixel */
"64 64 20 1 ",
"  c None",
". c #3A3A3A",
"X c gray23",
"o c #3C3C3C",
"O c gray24",
"+ c #3E3E3E",
"@ c #3F3F3F",
"# c gray25",
"$ c gray26",
"% c #444444",
"& c #464646",
"* c #484848",
"= c #494949",
"- c #4C4C4C",
"; c gray30",
": c #505050",
"> c #515151",
", c #565656",
"< c gray35",
"1 c #5F5F5F",
/* pixels */
"     111111111111111111111111111111111111111111111111111111     ",
"   1111111111111111111111111111111111111111111111111111111111   ",
" 111<:;;************************************************;;:<111 ",
" 11:********************************************************:11 ",
"11,**********************************************************,11",
"11;**********************************************************;11",
"11************************************************************11",
"11**%OOO................................................OOO%**11",
"11*$........................................................$*11",
"11%.....OOOOO.OOOOOOOOOOOOOOOOOOOOOOOOOOOOOOO.OOOOOOOO.O.....%11",
"11O.OOOOOOOOO.OOOOOOOOOOOOOOOOOOOOOOOOOOOOOOOOOOOOOOOOOOOOOO.O11",
"11.OOOOOOOOOOOOOOOOOOOOOOOOOOOOOOOOOOOOOOOOOOOOOOOOOOOOOOOOOO.11",
"11.OOOOOOOOOOOOOOOOOOOOOOOOOOOOOO.OO.OOOOOOOOOOOOOOOOOOOOOOOO.11",
"11OOOOOOOOOOOOOOOOOOOOOOOOO.OOOOOOOOOO.OOOOOOOOOOOOOOOOOOOOOOO11",
"11OOOOOOOOOOOOOOOOOO.OOOOOOOOOOOOOOOOOOOOOOOO.OOOOOOOOOOOOOOOO11",
"11OOOOOOOOOOO.OOOO.O.OOOOOOOOOOOOOOOOOOOOOOOOOOOOOOOOO.OOOOOOO11",
"11OOOOOOOOOOOO..OOOOOOOO.OOOOOOOOOOO.OOOOOOOOOOOOOOOOOOOOOOOOO11",
"11OO.OOOOO.OOOOOOOOOOOOOOOOO..OOOOOOOOOO..OOOOOOOOOO.OOOOOOOOO11",
"11OOOOOOOOOOOOOOOOOOOOOOOOOOOOOOOOOOOOOOOOOO.OOO.OOOOOOOOOOOOO11",
"11OOOOOOOOOOOOOOO.OOOOOOOOOOOOOOOOOOOOOOOOOO.OOOOOOOOOOOOOOOOO11",
"11OO.OOOOOOOOOOOOO.OOOO.OOOOO.OOOOO.OOOOOOOOOOOOOOOO.OOOOOOOOO11",
"11OO.OOOOOOOOOOOOO.OOOOOOOO.OOOOOOOOOOOO.OOOOOOOOOOO.OOOOOOOOO11",
"11OOOOOOOO.OOOOOOOOOOOOOOOOOOOOOOOOOO.OOOOOO.OOO..OOOOOOOO.OOO11",
"11OOOOOOOOOOO.OOOOOOOOOOOOOOOOOOOOOOO.OOOOOOOOOOOOOOOOOOOOOOOO11",
"11OOOOOOOOOOOOOOOOOOOOOOOOOOOOOOO.OOOOOOOO..OOOOOOO.OOOOOOOOOO11",
"11OOOOOOOOOO.OOOOOOOOOOOOOOOOO.OOOOOOOO.OOOOOOO.OOOOOOOO.OOOOO11",
"11OOOOOOOO..OOOOO.OO.OOOOOOOOOOOOOOOOOOOOOOOOOOOOOOOOOOOOOOOOO11",
"11OOOOOOOOOOOOOOO.OOOOOO..OOOOOOOOOOOOOOOOOOOOOOOOOOOOOOOOOOOO11",
"11OOOOOOOOOOOOOOOOOOO.OO..OOOOOO.OOOOOOOOOOOOOOOOOOO.OOOOOOOOO11",
"11OOOOOOOOOOOOOOOOOOOOOOOOOOOOOO.OOOO.OOOO.OOOOOOOOOOOOOOOOOOO11",
"11OOOO.OOOOOOOOOOOOOOOOOOOOOOO.OOOOOOOOOOOOOOOOOOO.OOOOOOOOOOO11",
"11OOOOOOOOO.OOOO.OOOOOOOOOOOOOOOOOOOOOOOOOOOOO.OOO.OOOOOOOOOOO11",
"11OOOOOOOOOOOOOOO..OOOOOOOOOOOOOOOOOOOOOOOOOOOOOOOOOO.OOO.OOOO11",
"11OOO.OOOOOOOOOOOOOOOO.OOOOOOOOOO.OOOOOOOOOOOOOOOOOOO.OOOOOOOO11",
"11OOOOOOOOOOOOOOOOOOOOOO.OOOOOO.OOOO.OOOO..OOOO.OOOOOOOOOOOOOO11",
"11OOOOOOOO..OO.OOOOOOOOOOOOOOOOOOOOOOOOOOOOOOOOOOOO.OOOOOOOOOO11",
"11OOOOOOOOOOOOOO.OOOO.OOOOO..OOOOOOOOOOOOOOOOOOOOOOOOOOOOOOOOO11",
"11OOOOOOOOOOOOOOOOOOOOOOOOOOOOOO.OOOOOOO.OOOOOOOOOOOOOOOOOOOOO11",
"11OOOOOOO.OOOOOOOOOOOOOOOOOOOOOO.OOOOOOO.OOOOOOOOOOOOOOO.OOOOO11",
"11OOOOOOO.OOO.OOOOOOOOOOOOOOOOOOOOOO.OOOOOOOOOO.OOOO.OOOOOOO..11",
"11..OOOOOOO.OOOOOOOOOOOOOOOOOOOOOOOOOOOOOOOOOOOOOO.OOO.OOOOOOO11",
"11OOOOO.OOOOOOOOOOOOOOOOOOOOOOOOOOO.OOOOOO.OOOOOOOOOOO.OOOOOOO11",
"11OOOOOOOOOOOOOO.OOOO..OOOOOOOOOOOO.OO.OOOOO.OOOOOOOOOOOOOOOOO11",
"11OOOOOOOOOOOOOOOOOOOOOOOO.OOOO.OOOOOOOOOOOOOOOOOOOOOOOOOOOOOO11",
"11OOOOOOOOOO.OOOOOOOOOOOOOOOOOO.OOO.OOOOOOOOOOOOO.OO..OOOOOOOO11",
"11OOOOOOOOOOOOOOOOOOOOO.O.OOOOOOOOOOOOOOOOOOOOOOOOOOOOOOOOOOOO11",
"11OOOOOOOO.OOOOOOOOOOOO.OOOOOOOOOOOOOOO.OOOOOOOOOOOOOOOOOO.OOO11",
"11OOOO.OOO.OOOOO.OOOOOOOOOOOOOOOOOOOOOOOOOO..OOOOOOOOOOOOOOOOO11",
"11OOOOOOOOOOOO.OOOO..OOOOOOOOO.OOOOOOOOOOOOOOO.OOOO..OOOOOOOOO11",
"11OOOOOOOO.OOOOOOOOOOOOOOO.OOOOOOOOOOO.OOO.OOOOOOOOOOOOOOO.OOO11",
"11OOOOOOOOOOOOOOOOOOOOOOOOOOOOOOOOOOOO.OOOOOOOOOOOOOOOOOOOOOOO11",
"11OOOOOOOOOOOOOOOOOOOOOOOOOOOOOOO.OOOOOOOOOOOOOOOOOOOOOOOOOOOO11",
"11OOOOOOO..O.OOOOOOOOOOOO..O.OOO.OOOOOOOO..O.OOOOOOOOOOOOOOOOO11",
"11OOOOOOOOOOOOOOOOOO.OOOOOOOOOOOOOOOOOOOOOOOOOOOOOOO.OOOOOOOOO11",
"11OOOOO.OOOOOOOOOO.OOOOOOOOOOOOOOOOOOOO.OOOOOOOOOO.OOOOOOOOOOO11",
"11OOOOOOOOOOOOOOOOOOOOOOOOOOOOOOOOOOOOOOOOOOOOOOOOOOOOOOOOOOOO11",
"11OOOOOOOOOOOOOOO..OOOOOOOOOOOOOOOOOOOOOOOOOOOOOO..OOOOOOOOOOO11",
"11OOOOOOOOOOOOOOOOOOOOOOOOOOOOOOOOOOOOOOOOOOOOOOOOOOOOOOOOOOOO11",
"11%OOOOOOOOOOOOOOOOOOOOOOOOOOOOOOOOOOOOOOOOOOOOOOOOOOOOOOOOOO%11",
"11:OOOOO.OOOOOOOOOOOOOOOOOO.OOOOO..OOOOOOOO.OOOOOOOOOOOOOOO.O:11",
" 11*OOOOOOOOOOOOOOOOOOOOOOOOOOOOOOOOOOOOOOOOOOOOOOOOOOOOOOOO*11 ",
" 111;$OOOOOOOOOOOOOOOOOOOOOOOOOOOOOOOOOOOOOOOOOOOOOOOOOOOO$;111 ",
"   1111111111111111111111111111111111111111111111111111111111   ",
"    11111111111111111111111111111111111111111111111111111111    "
};
