/* XPM */
static char *_a6f78f7e19d42458667f1efabfad51f38XAOL9wMvXbe7BP[] = {
/* columns rows colors chars-per-pixel */
"64 64 15 1 ",
"  c None",
". c #CD4334",
"X c #D34535",
"o c #D64636",
"O c #D94737",
"+ c #DC4838",
"@ c #DF4939",
"# c #EC4D3C",
"$ c #F24F3E",
"% c #FF5241",
"& c #FF5341",
"* c #FF5242",
"= c #FF5342",
"- c #758C8E",
"; c #819A9C",
/* pixels */
"     ==========================--==========================     ",
"   ============================--============================   ",
" ===$@OO.......................--.......................OO@$=== ",
" ==@...........................--...........................@== ",
"==#............................--............................#==",
"==o............................--............................o==",
"==.............................--.............................==",
"==.............................--.............................==",
"==.............................--.............................==",
"==.............................--.............................==",
"==.............................--.............................==",
"==.............................--.............................==",
"==.............................--.............................==",
"==.............................--.............................==",
"==.............................--.............................==",
"--;;;;;;;;;;;;;;;;;;;;;;;;;;;;;;;;;;;;;;;;;;;;;;;;;;;;;;;;;;;;--",
"--;;;;;;;;;;;;;;;;;;;;;;;;;;;;;;;;;;;;;;;;;;;;;;;;;;;;;;;;;;;;--",
"==.............--..............................--.............==",
"==.............--..............................--.............==",
"==.............--..............................--.............==",
"==.............--..............................--.............==",
"==.............--..............................--.............==",
"==.............--..............................--.............==",
"==.............--..............................--.............==",
"==.............--..............................--.............==",
"==.............--..............................--.............==",
"==.............--..............................--.............==",
"==.............--..............................--.............==",
"==.............--..............................--.............==",
"==.............--..............................--.............==",
"==.............--..............................--.............==",
"--;;;;;;;;;;;;;;;;;;;;;;;;;;;;;;;;;;;;;;;;;;;;;;;;;;;;;;;;;;;;--",
"--;;;;;;;;;;;;;;;;;;;;;;;;;;;;;;;;;;;;;;;;;;;;;;;;;;;;;;;;;;;;--",
"==.............................--.............................==",
"==.............................--.............................==",
"==.............................--.............................==",
"==.............................--.............................==",
"==.............................--.............................==",
"==.............................--.............................==",
"==.............................--.............................==",
"==.............................--.............................==",
"==.............................--.............................==",
"==.............................--.............................==",
"==.............................--.............................==",
"==.............................--.............................==",
"==.............................--.............................==",
"==.............................--.............................==",
"--;;;;;;;;;;;;;;;;;;;;;;;;;;;;;;;;;;;;;;;;;;;;;;;;;;;;;;;;;;;;--",
"--;;;;;;;;;;;;;;;;;;;;;;;;;;;;;;;;;;;;;;;;;;;;;;;;;;;;;;;;;;;;--",
"==.............--..............................--.............==",
"==.............--..............................--.............==",
"==.............--..............................--.............==",
"==.............--..............................--.............==",
"==.............--..............................--.............==",
"==.............--..............................--.............==",
"==.............--..............................--.............==",
"==.............--..............................--.............==",
"==X............--..............................--............X==",
"==@............--..............................--............@==",
"==$............--..............................--............$==",
" ==@...........--..............................--...........@== ",
"  ==#X.........--..............................--.........X#==  ",
"  =============--==============================--=============  ",
"    ===========--==============================--===========    "
};
