/* XPM */
static char *_0622ec67d6f46c9d9c6bfe9c506e64eHJkMF1FpYzb5IjxY[] = {
/* columns rows colors chars-per-pixel */
"64 64 15 1 ",
"  c None",
". c #6E8385",
"X c #738A8C",
"o c #778E90",
"O c #7D9698",
"+ c #88A3A5",
"@ c #89A4A6",
"# c #90ACAE",
"$ c #90ADAF",
"% c #94B2B4",
"& c #9BBABC",
"* c #9BBBBD",
"= c #9CBBBC",
"- c #9CBABD",
"; c #9CBBBD",
/* pixels */
"     ;;;;;;;;;;;;;;;;;;;;;;;;;;;;;;;;;;;;;;;;;;;;;;;;;;;;;;     ",
"   ;;;;;;;;;;;;;;;;;;;;;;;;;;;;;;;;;;;;;;;;;;;;;;;;;;;;;;;;;;&  ",
"  ;;;;;#@@@@@@@@@@@@@@@@@@@@@@@@@@@@@@@@@@@@@@@@@@@@@@@@#;;;;;  ",
" ;;;;;;;#@@@@@@@@@@@@@@@@@@@@@@@@@@@@@@@@@@@@@@@@@@@@@@#;;;;;;; ",
";;;;;;;;;#@@@@@@@@@@@@@@@@@@@@@@@@@@@@@@@@@@@@@@@@@@@@#;;;;;;;; ",
";;;;;;;;;;#@@@@@@@@@@@@@@@@@@@@@@@@@@@@@@@@@@@@@@@@@@#;;;;;;;;;;",
"&;;;;;;;;;;#@@@@@@@@@@@@@@@@@@@@@@@@@@@@@@@@@@@@@@@@#;;;;;;;;;;&",
";;%;;;;;;;;;#@@@@@@@@@@@@@@@@@@@@@@@@@@@@@@@@@@@@@@#;;;;;;;;;%;;",
";;@%;;;;;;;;;#@@@@@@@@@@@@@@@@@@@@@@@@@@@@@@@@@@@@#;;;;;;;;;%@;;",
";;@@%;;;;;;;;;#@@@@@@@@@@@@@@@@@@@@@@@@@@@@@@@@@@#;;;;;;;;;%@@;;",
";;@@@%;;;;;;;;#X................................X#;;;;;;;;%@@@;;",
";;@@@@%;;;;;;#OOX..............................XOO#;;;;;;%@@@@;;",
";;@@@@@%;;;;#OOOOX............................XOOOO#;;;;%@@@@@;;",
";;@@@@@@%;;#OOOOOOX..........................XOOOOOO#;;%@@@@@@;;",
";;@@@@@@@%#OOOOOOOOX........................XOOOOOOOO#%@@@@@@@;;",
";;@@@@@@@@oOOOOOOOOOX......................XOOOOOOOOOo@@@@@@@@;;",
";;@@@@@@@@.oOOOOOOOOOX....................XOOOOOOOOOo.@@@@@@@@;;",
";;@@@@@@@@..oOOOOOOOOOX..................XOOOOOOOOOo..@@@@@@@@;;",
";;@@@@@@@@...oOOOOOOOOOX................XOOOOOOOOOo...@@@@@@@@;;",
";;@@@@@@@@....oOOOOOOOOOX..............XOOOOOOOOOo....@@@@@@@@;;",
";;@@@@@@@@.....oOOOOOOOOOX............XOOOOOOOOOo.....@@@@@@@@;;",
";;@@@@@@@@......oOOOOOOOOOX..........XOOOOOOOOOo......@@@@@@@@;;",
";;@@@@@@@@.......oOOOOOOOOOX........XOOOOOOOOOo.......@@@@@@@@;;",
";;@@@@@@@@........oOOOOOOOOOX......XOOOOOOOOOo........@@@@@@@@;;",
";;@@@@@@@@.........oOOOOOOOOOX....XOOOOOOOOOo.........@@@@@@@@;;",
";;@@@@@@@@..........oOOOOOOOOOX..XOOOOOOOOOo..........@@@@@@@@;;",
";;@@@@@@@@...........oOOOOOOOOOXXOOOOOOOOOo...........@@@@@@@@;;",
";;@@@@@@@@............oOOOOOOOOOOOOOOOOOOo............@@@@@@@@;;",
";;@@@@@@@@.............oOOOOOOOOOOOOOOOOo.............@@@@@@@@;;",
";;@@@@@@@@..............oOOOOOOOOOOOOOOo..............@@@@@@@@;;",
";;@@@@@@@@...............oOOOOOOOOOOOOo...............@@@@@@@@;;",
";;@@@@@@@@................oOOOOOOOOOOo................@@@@@@@@;;",
";;@@@@@@@@................XOOOOOOOOOOX................@@@@@@@@;;",
";;@@@@@@@@...............XOOOOOOOOOOOOX...............@@@@@@@@;;",
";;@@@@@@@@..............XOOOOOOOOOOOOOOX..............@@@@@@@@;;",
";;@@@@@@@@.............XOOOOOOOOOOOOOOOOX.............@@@@@@@@;;",
";;@@@@@@@@............XOOOOOOOOOOOOOOOOOOX............@@@@@@@@;;",
";;@@@@@@@@...........XOOOOOOOOOooOOOOOOOOOX...........@@@@@@@@;;",
";;@@@@@@@@..........XOOOOOOOOOo..oOOOOOOOOOX..........@@@@@@@@;;",
";;@@@@@@@@.........XOOOOOOOOOo....oOOOOOOOOOX.........@@@@@@@@;;",
";;@@@@@@@@........XOOOOOOOOOo......oOOOOOOOOOX........@@@@@@@@;;",
";;@@@@@@@@.......XOOOOOOOOOo........oOOOOOOOOOX.......@@@@@@@@;;",
";;@@@@@@@@......XOOOOOOOOOo..........oOOOOOOOOOX......@@@@@@@@;;",
";;@@@@@@@@.....XOOOOOOOOOo............oOOOOOOOOOX.....@@@@@@@@;;",
";;@@@@@@@@....XOOOOOOOOOo..............oOOOOOOOOOX....@@@@@@@@;;",
";;@@@@@@@@...XOOOOOOOOOo................oOOOOOOOOOX...@@@@@@@@;;",
";;@@@@@@@@..XOOOOOOOOOo..................oOOOOOOOOOX..@@@@@@@@;;",
";;@@@@@@@@.XOOOOOOOOOo....................oOOOOOOOOOX.@@@@@@@@;;",
";;@@@@@@@@XOOOOOOOOOo......................oOOOOOOOOOX@@@@@@@@;;",
";;@@@@@@@#+OOOOOOOOo........................oOOOOOOOO+#@@@@@@@;;",
";;@@@@@@#;;+OOOOOOo..........................oOOOOOO+;;#@@@@@@;;",
";;@@@@@#;;;;+OOOOo............................oOOOO+;;;;#@@@@@;;",
";;@@@@#;;;;;;+OOo..............................oOO+;;;;;;#@@@@;;",
";;@@@#;;;;;;;;+o................................o+;;;;;;;;#@@@;;",
";;@@#;;;;;;;;;%@@@@@@@@@@@@@@@@@@@@@@@@@@@@@@@@@@%;;;;;;;;;#@@;;",
";;@#;;;;;;;;;%@@@@@@@@@@@@@@@@@@@@@@@@@@@@@@@@@@@@%;;;;;;;;;#@;;",
";;#;;;;;;;;;%@@@@@@@@@@@@@@@@@@@@@@@@@@@@@@@@@@@@@@%;;;;;;;;;#;;",
";;;;;;;;;;;%@@@@@@@@@@@@@@@@@@@@@@@@@@@@@@@@@@@@@@@@%;;;;;;;;;;;",
";;;;;;;;;;%@@@@@@@@@@@@@@@@@@@@@@@@@@@@@@@@@@@@@@@@@@%;;;;;;;;;&",
"&;;;;;;;;%@@@@@@@@@@@@@@@@@@@@@@@@@@@@@@@@@@@@@@@@@@@@%;;;;;;;;&",
" ;;;;;;;%@@@@@@@@@@@@@@@@@@@@@@@@@@@@@@@@@@@@@@@@@@@@@@%;;;;;;; ",
"  ;;;;;%@@@@@@@@@@@@@@@@@@@@@@@@@@@@@@@@@@@@@@@@@@@@@@@@%;;;;;  ",
"  &;;;;;;;;;;;;;;;;;;;;;;;;;;;;;;;;;;;;;;;;;;;;;;;;;;;;;;;;;;&  ",
"    ;;;;;;;;;;;;;;;;;;;;;;;;;;;;;;;;;;;;;;;;;;;;;;;;;;;;;;;;    "
};
